<?xml version="1.0" standalone="no"?>
<!DOCTYPE svg PUBLIC "-//W3C//DTD SVG 1.0//EN" "http://www.w3.org/TR/2001/REC-SVG-20010904/DTD/svg10.dtd">
<svg xmlns="http://www.w3.org/2000/svg" xmlns:xlink="http://www.w3.org/1999/xlink" id="body_1" width="16" height="16">

<g transform="matrix(0.02 0 0 0.02 0 0)">
	<g>
		<g>
            <path d="M741.31866 468.50986C 741.31866 478.70148 746.7728 488.11896 755.6265 493.21475C 764.4802 498.31058 775.3884 498.31058 784.2421 493.21475C 793.0958 488.11896 798.55 478.70148 798.5499 468.50986C 798.55 458.31824 793.0958 448.90076 784.2421 443.80496C 775.3884 438.70914 764.4802 438.70914 755.6265 443.80496C 746.7728 448.90076 741.31866 458.31824 741.31866 468.50986z" stroke="#000000" stroke-width="1" fill="#67AB08" fill-rule="nonzero" stroke-opacity="0" />
            <path d="M769.9343 553.6458C 754.1157 553.6458 741.3187 566.4429 741.3187 582.17255L741.3187 582.17255L741.3187 653.88934C 741.3187 685.2599 715.8135 710.76514 684.44293 710.76514L684.44293 710.76514L116.30707 710.76514C 84.936516 710.76514 59.43128 685.2599 59.43128 653.88934L59.43128 653.88934L59.43128 142.27383C 59.43128 110.90328 84.936516 85.39804 116.30707 85.39804L116.30707 85.39804L314.0393 85.39804L387.5335 212.74649C 393.39883 222.87749 404.59625 228.03186 415.52707 226.7877L415.52707 226.7877L684.35406 226.7877C 715.7246 226.7877 741.22986 252.29294 741.22986 283.66348L741.22986 283.66348L741.22986 354.75824C 741.22986 370.48795 754.0269 383.285 769.84546 383.285C 785.664 383.285 798.46106 370.48795 798.46106 354.75824C 798.46106 354.0473 798.46106 353.33636 798.3722 352.6254L798.3722 352.6254L798.3722 283.75238C 798.3722 234.697 767.3571 192.92885 723.8116 176.93253L723.8116 176.93253L723.8116 176.04384C 723.8116 115.43557 674.223 65.846985 613.61475 65.846985L613.61475 65.846985L368.42676 65.846985L355.27423 43.007797C 348.69797 31.543766 339.27792 28.611118 331.01315 28.788847L331.01315 28.788847L330.9243 28.699978L115.95157 28.699978C 53.12159 28.699978 2.1999893 79.62159 2.1999893 142.45155L2.1999893 142.45155L2.1999893 652.6452C 2.1999893 715.47516 53.1216 766.3968 115.95157 766.3968L115.95157 766.3968L684.7095 766.3968C 747.5394 766.3968 798.46106 715.47516 798.46106 652.6452L798.46106 652.6452L798.46106 584.30536C 798.5499 583.5944 798.5499 582.8835 798.5499 582.17255C 798.5499 566.4428 785.75287 553.6458 769.9343 553.6458zM609.1713 122.545074C 637.2537 122.545074 660.715 143.16254 665.2473 170.00082L665.2473 170.00082L428.5907 170.00082L401.21924 122.54508L609.1713 122.54508z" stroke="#000000" stroke-width="1" fill="#67AB08" fill-rule="nonzero" stroke-opacity="0" />
		</g>
		<g>
            <path d="M733.5261 348.22128C 733.1427 345.49448 730.822 343.93964 728.8727 343.93964C 726.92334 343.93964 685.4494 340.84155 685.4494 340.84155C 685.4494 340.84155 656.7639 312.15555 653.2824 309.05695C 650.1727 305.95886 643.9755 306.72467 641.64325 307.5021C 641.2604 307.5021 635.44653 309.4404 625.36273 312.55008C 615.6729 284.24698 598.61395 258.65903 568.757 258.65903L568.757 258.65903L566.0529 258.65903C 557.90686 247.79832 547.0567 242.76196 538.13324 242.76196C 468.35675 242.76196 435.01727 329.9914 424.5506 374.1916C 397.39673 382.72107 378.01764 388.53485 375.69644 389.30066C 360.57626 393.95413 360.19336 394.34863 358.2551 408.6803C 356.70026 419.54153 317.153 725.82404 317.153 725.82404L317.153 725.82404L625.36273 783.579L792.45245 747.52435C 792.45245 747.1415 733.9201 350.92538 733.5261 348.2213L733.5261 348.2213L733.5261 348.22128zM608.30426 317.18082C 599.6061 319.76422 590.9492 322.47955 582.3339 325.32687L582.3339 325.32687L582.3339 319.5131C 582.3339 302.45465 580.00165 288.4948 576.1367 277.26175C 591.6403 279.5824 601.713 297.02374 608.30426 317.1808zM556.7466 281.12616C 561.0055 291.9874 563.7318 307.1081 563.7318 328.04202L563.7318 328.04202L563.7318 331.14062C 546.6623 336.57098 528.4435 342.00186 509.83072 347.81564C 520.309 307.8855 540.07104 288.49478 556.7466 281.12616zM536.1839 261.37524C 539.28253 261.37524 542.3811 262.53558 545.10736 264.47333C 522.6185 274.94058 498.9689 301.3054 488.8851 354.41797C 474.15894 359.07144 459.8162 363.33035 446.23926 367.60037C 457.87845 327.2757 486.16992 261.37524 536.1839 261.37524z" stroke="#000000" stroke-width="1" fill="#95BF47" fill-rule="nonzero" stroke-opacity="0" />
            <path d="M728.8727 343.55676C 726.9344 343.55676 685.4494 340.45816 685.4494 340.45816C 685.4494 340.45816 656.7639 311.77267 653.2824 308.663C 652.16565 307.48535 650.6335 306.78995 649.01184 306.7247L649.01184 306.7247L625.7567 783.579L792.847 747.52435C 792.847 747.52435 734.3035 350.92538 733.9201 348.2213C 733.221 345.8581 731.28357 344.06763 728.8727 343.55676z" stroke="#000000" stroke-width="1" fill="#5E8E3E" fill-rule="nonzero" stroke-opacity="0" />
            <path d="M568.7687 435.82257L548.2171 497.08118C 548.2171 497.08118 529.99835 487.39136 507.89243 487.39136C 475.33093 487.39136 473.77606 507.9313 473.77606 512.96765C 473.77606 540.8873 546.6738 551.7491 546.6738 617.26666C 546.6738 668.82434 514.1007 702.1633 469.9 702.1633C 416.78745 702.1633 390.0397 669.2073 390.0397 669.2073L390.0397 669.2073L404.38245 622.30304C 404.38245 622.30304 432.30212 646.3356 455.55725 646.3356C 471.07193 646.3356 477.26917 634.3246 477.26917 625.40106C 477.26917 588.9635 417.56488 587.4087 417.56488 527.322C 417.56488 476.92465 453.6195 428.0705 526.8886 428.0705C 554.8083 427.6876 568.7681 435.82257 568.7681 435.82257L568.7681 435.82257L568.7687 435.82257z" stroke="#000000" stroke-width="1" fill="#FFFFFF" fill-rule="nonzero" stroke-opacity="0" />
		</g>
	</g>
</g>
</svg>